<svg id="Layer_1" data-name="Layer 1" xmlns="http://www.w3.org/2000/svg" viewBox="0 0 24 22.94"><defs><style>.cls-1{fill:#fff;}</style></defs><title>linkedin</title><path class="cls-1" d="M2.88,5.34h0A2.66,2.66,0,0,1,0,2.67,2.69,2.69,0,0,1,2.91,0,2.66,2.66,0,0,1,5.78,2.67,2.67,2.67,0,0,1,2.88,5.34ZM5.45,22.94H.3V7.45H5.45Zm18.55,0H18.86V14.66c0-2.08-.75-3.5-2.61-3.5A2.82,2.82,0,0,0,13.61,13a3.88,3.88,0,0,0-.17,1.27v8.64H8.3c.06-14,0-15.48,0-15.48h5.14V9.7h0a5.1,5.1,0,0,1,4.67-2.61c3.39,0,5.92,2.22,5.92,7Z"/></svg>