<svg id="Layer_1" data-name="Layer 1" xmlns="http://www.w3.org/2000/svg" viewBox="0 0 30.01 17.12"><defs><style>.cls-1{fill:#fff;}</style></defs><title>vk</title><path class="cls-1" d="M27.62,13.36c-3,4-3.36,3.66-.86,6a13.21,13.21,0,0,1,3,3.45s1,1.75-1.11,1.77l-4,.06a3.33,3.33,0,0,1-2-.61c-1.5-1-2.91-3.7-4-3.36,0,0-1.12.36-1.09,2.77a1.2,1.2,0,0,1-.23.8,1.35,1.35,0,0,1-.83.34h-1.8c-4,.25-7.44-3.39-7.44-3.39S3.44,17.23.09,9.37c-.22-.52,0-.77,0-.77A1.13,1.13,0,0,1,1,8.31l4.28,0A1.63,1.63,0,0,1,6,8.56a1.15,1.15,0,0,1,.37.5A31.35,31.35,0,0,0,8,12.41c1.56,3.22,2.62,3.77,3.23,3.44,0,0,.8-.48.62-4.37a4.62,4.62,0,0,0-.45-2A2.08,2.08,0,0,0,10,8.75c-.23,0,.16-.59.67-.84a9.77,9.77,0,0,1,3.73-.37,8.28,8.28,0,0,1,2.11.2c1.48.36,1,1.73,1,5,0,1.06-.2,2.55.56,3,.33.22,1.14,0,3.14-3.37a28.83,28.83,0,0,0,1.67-3.52.93.93,0,0,1,.39-.48,1,1,0,0,1,.59-.09l4.5,0c1.36-.17,1.58.45,1.58.45C30.2,9.41,29.47,10.91,27.62,13.36Z" transform="translate(0 -7.53)"/></svg>